<?xml version="1.0" encoding="UTF-8" standalone="no"?>
<!-- Created with Inkscape (http://www.inkscape.org/) -->

<svg
   xmlns:osb="http://www.openswatchbook.org/uri/2009/osb"
   xmlns:dc="http://purl.org/dc/elements/1.1/"
   xmlns:cc="http://creativecommons.org/ns#"
   xmlns:rdf="http://www.w3.org/1999/02/22-rdf-syntax-ns#"
   xmlns:svg="http://www.w3.org/2000/svg"
   xmlns="http://www.w3.org/2000/svg"
   xmlns:sodipodi="http://sodipodi.sourceforge.net/DTD/sodipodi-0.dtd"
   xmlns:inkscape="http://www.inkscape.org/namespaces/inkscape"
   width="48"
   height="48"
   viewBox="0 0 48 48"
   id="svg2"
   version="1.1"
   inkscape:version="0.91 r13725"
   sodipodi:docname="favicon-v2.svg"
   inkscape:export-filename="/home/bhacaz/Documents/Platforme-Canneberge/Favicon/favicon-v2.svg.png"
   inkscape:export-xdpi="90"
   inkscape:export-ydpi="90">
  <defs
     id="defs4">
    <linearGradient
       id="linearGradient4180"
       osb:paint="solid">
      <stop
         style="stop-color:#000000;stop-opacity:1;"
         offset="0"
         id="stop4182" />
    </linearGradient>
  </defs>
  <sodipodi:namedview
     id="base"
     pagecolor="#ffffff"
     bordercolor="#666666"
     borderopacity="1.0"
     inkscape:pageopacity="0.0"
     inkscape:pageshadow="2"
     inkscape:zoom="16"
     inkscape:cx="11.047143"
     inkscape:cy="24.415764"
     inkscape:document-units="px"
     inkscape:current-layer="layer2"
     showgrid="false"
     units="px"
     inkscape:window-width="1920"
     inkscape:window-height="1048"
     inkscape:window-x="0"
     inkscape:window-y="0"
     inkscape:window-maximized="1" />
  <metadata
     id="metadata7">
    <rdf:RDF>
      <cc:Work
         rdf:about="">
        <dc:format>image/svg+xml</dc:format>
        <dc:type
           rdf:resource="http://purl.org/dc/dcmitype/StillImage" />
        <dc:title></dc:title>
      </cc:Work>
    </rdf:RDF>
  </metadata>
  <g
     inkscape:groupmode="layer"
     id="layer5"
     inkscape:label="Circle"
     style="display:none" />
  <g
     inkscape:groupmode="layer"
     id="layer2"
     inkscape:label="cross"
     style="display:inline">
    <path
       style="display:inline;fill:#1a1a1a;fill-rule:evenodd;stroke:#000000;stroke-width:0;stroke-linecap:butt;stroke-linejoin:miter;stroke-miterlimit:4;stroke-dasharray:none;stroke-opacity:1"
       d="M 24,0 C 10.745165,-3.3137101e-6 -3.3137101e-6,10.745165 0,24 0.00890174,29.649449 2.0104657,35.114673 5.6523438,39.433594 3.2972418,36.535199 2.0125525,32.946739 2.0058594,29.248047 2.0064327,20.168015 9.5507671,12.807305 18.857422,12.806641 28.16484,12.806252 35.710365,20.167271 35.710938,29.248047 35.71147,38.329586 28.165622,45.691795 18.857422,45.691406 14.54556,45.687688 10.399168,44.07163 7.2714844,41.175781 11.74591,45.542644 17.747809,47.991054 24,48 c 13.254835,3e-6 24.000003,-10.745165 24,-24 -0.01227,-2.292603 -0.352969,-4.571621 -1.011719,-6.767578 -2.198008,6.029032 -6.869389,7.14897 -11.072265,7.265625 -0.471196,-2.18522 -1.520612,-3.598492 -2.501954,-5.103516 3.107816,-6.230485 6.420192,-6.012179 12.13086,-5.816406 -0.69559,-1.449624 -1.535094,-2.825678 -2.50586,-4.1074219 -2.333894,3.3091249 -5.575623,4.8994749 -7.574218,5.0390629 0.430779,-3.322337 1.276067,-7.0389637 2.851562,-9.7070316 C 36.903841,3.7408647 35.378317,2.8382572 33.767578,2.1113281 37.674586,9.1060483 34.995483,14.572605 32.349609,17.855469 30.051195,15.579131 29.487338,15.271771 28.455078,14.578125 25.5881,9.3843541 27.053453,4.919537 31.986328,1.3945312 29.42256,0.48016902 26.721928,0.0085987 24,0 Z m 7.986328,1.3945312 c 0.222415,0.070337 0.443793,0.1439121 0.664063,0.2207032 0.05462,-0.044686 0.189873,-0.1428159 0.232421,-0.1816406 0.0814,0.1192612 0.155106,0.2464311 0.220704,0.3789062 0.222853,0.096245 0.444232,0.1958661 0.664062,0.2988281 C 33.51754,1.6636852 33.245224,1.2099903 32.939453,0.75 32.60767,0.9609699 32.29172,1.1762999 31.986328,1.3945312 Z M 33.103516,1.8125 C 32.953155,1.7451914 32.802106,1.6794327 32.650391,1.6152344 31.140994,2.8500104 25.347116,6.2943231 28.296875,13.541016 28.166766,12.411418 28.202541,9.5623122 29.552734,8.8203125 33.338555,6.7398073 34.022102,3.6676039 33.103516,1.8125 Z m 5.21289,2.9902344 c 0.126507,0.08798 0.252164,0.1771773 0.376953,0.2675781 2.15863,-3.5880056 4.856914,-3.9819254 6.675782,-3.0683594 -1.038358,1.3944356 -2.187872,0.841469 -3.402344,1.7929688 -0.750186,0.5877466 -1.456577,1.3868107 -2.107422,2.265625 1.168063,1.0308256 2.232982,2.1729326 3.179687,3.4101562 1.418218,-2.0108272 2.50224,-4.6544447 2.765626,-7.9980469 -3.498121,-1.03264093 -5.875794,0.5993644 -7.488282,3.3300782 z m 1.542969,1.2578125 C 39.481324,5.7181625 39.092455,5.3879167 38.693359,5.0703125 37.622127,6.8508806 36.680976,9.4050778 36.050781,13.001953 36.375665,12.341914 37.833703,8.7957436 39.859375,6.0605469 Z m 5.685547,7.5175781 c 0.580186,1.176604 1.062922,2.398797 1.443359,3.654297 0.382004,-1.047819 0.69761,-2.225649 0.914063,-3.591797 -0.890159,-0.0092 -1.570674,-0.03553 -2.357422,-0.0625 z m -4.31836,0.392578 c -2.514601,0.07945 -5.431029,1.104013 -7.154296,5.326172 0.696618,-0.89869 2.515823,-2.313675 4,-1.900391 4.458681,1.241563 7.165428,-0.819888 7.542968,-2.953125 -0.721099,-0.02482 -2.432871,-0.534448 -4.388672,-0.472656 z M 4.5351562,31.171875 c -3.0234375,11.21875 -1.5117187,5.609375 0,0 z m 6.8144528,4.777344 c -0.831807,0.0046 -1.5469354,0.301965 -1.9824215,0.824219 -0.889497,1.067885 -0.3892091,2.762917 1.1171875,3.785156 1.505574,1.02269 3.447063,0.985959 4.335937,-0.08203 0.889497,-1.067885 0.389209,-2.762917 -1.117187,-3.785156 -0.70917,-0.48114 -1.553378,-0.747363 -2.353516,-0.742187 z m -1.3125,0.947265 c 0.04504,-0.0136 0.122137,-0.0031 0.238282,0.03711 0.83185,0.453371 0.519163,0.310941 1.511718,1.167968 l 1.171875,-1.027343 c 0.609683,-0.248848 0.381153,0.145481 -0.658203,1.398437 0.811928,0.648093 0.653751,0.726095 1.232422,1.21875 0.684299,0.545865 0.363497,1.235855 -1.65625,-0.724609 -0.857746,1.102046 -1.712084,1.783992 -1.292969,0.96875 0.212091,-0.423057 0.557148,-0.991607 0.84961,-1.382813 -0.454937,-0.299129 -1.7117604,-1.561043 -1.396485,-1.65625 z m -3.5585934,3.476563 c 0.1772292,0.192389 0.3575918,0.381867 0.5410156,0.568359 C 6.8346369,40.75613 6.6542482,40.566624 6.4785156,40.373047 Z"
       id="path3380"
       inkscape:connector-curvature="0"
       sodipodi:nodetypes="cccccsccccccccccccccccccccccccccsccccsccccccccccccscscsccccccccccccccccccccc" />
  </g>
</svg>
